<svg xmlns="http://www.w3.org/2000/svg" width="166" height="35" viewBox="0 0 166 35">
    <title>Bandwidth Logo</title>
    <path fill="#079CEE" d="M46.46 12.71a6.5 6.5 0 0 0-4.74 2.12v-8.7h-1.4v19.14c1.48.62 3.06.96 4.66.99a7.27 7.27 0 0 0 5.37-1.91 7.02 7.02 0 0 0 2.01-5.23 6.53 6.53 0 0 0-1.64-4.6 5.46 5.46 0 0 0-4.26-1.8Zm2.69 10.61a5.75 5.75 0 0 1-4.2 1.64c-1.1 0-2.2-.22-3.22-.62v-7.92c1.48-1.7 3-2.54 4.57-2.54a4.09 4.09 0 0 1 3.23 1.5 5.65 5.65 0 0 1 1.3 3.8 5.52 5.52 0 0 1-1.68 4.15ZM75.3 12.71a4.96 4.96 0 0 0-4.35 2.53h-.06v-2.28h-1.4v13.1h1.4v-9.18c1.12-1.87 2.55-2.8 4.3-2.8 2.37 0 3.56 1.5 3.56 4.53v7.46h1.4v-7.99a5.55 5.55 0 0 0-1.33-3.94 4.62 4.62 0 0 0-3.52-1.43Zm46.8 13.36h1.42V13h-1.41v13.06Zm0-17.42h1.42V6.16h-1.41v2.5Zm41.78 5.51a4.61 4.61 0 0 0-3.55-1.43 4.97 4.97 0 0 0-4.35 2.54h-.06v-9.1h-1.4v19.9h1.4v-9.19c1.17-1.87 2.61-2.8 4.3-2.8 2.38 0 3.57 1.5 3.57 4.53v7.46h1.44v-8.02a5.5 5.5 0 0 0-1.33-3.9l-.02.01ZM64.6 24.92c-.22 0-.32-.23-.32-.67v-8.12a2.98 2.98 0 0 0-1.16-2.54 4.7 4.7 0 0 0-2.94-.87 8.03 8.03 0 0 0-4.24 1.4v1.42a6.76 6.76 0 0 1 4-1.67c1.94 0 2.91.9 2.91 2.68v1.67a11.8 11.8 0 0 0-5.67 1.42 3.79 3.79 0 0 0-2 3.36 3.13 3.13 0 0 0 1.03 2.34 3.48 3.48 0 0 0 2.52.97 6.66 6.66 0 0 0 4.11-1.62c.01.45.1.89.27 1.3a.7.7 0 0 0 .65.33h.05a6.3 6.3 0 0 0 2.61-.67V24.3c-.6.3-1.23.5-1.88.6h.04Zm-1.75-1.44c-.96 1-2.27 1.6-3.65 1.7-.68.02-1.35-.2-1.88-.63a1.96 1.96 0 0 1-.74-1.53 3.06 3.06 0 0 1 1.74-2.67 8.17 8.17 0 0 1 4.49-.95l.04 4.08Zm51.64.48a2 2 0 0 1-.51 1 2.08 2.08 0 0 1-.52-.98l-3.04-9.15c-.52-1.55-1.24-1.88-1.74-1.88s-1.24.33-1.74 1.88l-3.05 9.12c-.08.37-.26.7-.52.98a2.08 2.08 0 0 1-.52-1l-3.4-10.98h-1.37l3.53 11.38c.5 1.59 1.22 1.93 1.74 1.94.52 0 1.24-.33 1.74-1.9l3.05-9.12c.08-.37.26-.7.53-.97a2 2 0 0 1 .52.97l3.04 9.16c.52 1.56 1.24 1.89 1.74 1.89.53 0 1.25-.35 1.74-1.93l3.53-11.38h-1.36l-3.39 10.97Zm32.49.45a6.23 6.23 0 0 1-.32-2.48V14.1h3.7v-1.14h-3.7V8.61s-1.4 0-1.4 1.84v2.5h-3.5v1.14h3.53v9.44a2.55 2.55 0 0 0 .88 2.06c.6.5 1.38.76 2.16.74a6.24 6.24 0 0 0 2.72-.67v-1.34c-.75.39-1.57.6-2.4.65-.9-.01-1.44-.2-1.67-.57Zm-53.1-10.63a8.7 8.7 0 0 0-3.89-1.05 6.38 6.38 0 0 0-4.74 1.94 6.66 6.66 0 0 0-1.9 4.86 6.69 6.69 0 0 0 4.07 6.36 6.59 6.59 0 0 0 6.47-.82v1.03h1.4V6.2h-1.4v7.58Zm0 10a6.16 6.16 0 0 1-3.54 1.2 5.3 5.3 0 0 1-3.93-1.58 5.37 5.37 0 0 1-1.58-3.96 5.28 5.28 0 0 1 1.47-3.84 5.02 5.02 0 0 1 3.74-1.5c1.37.02 2.7.45 3.83 1.22l.01 8.46Zm43.77-10a8.7 8.7 0 0 0-3.88-1.05 6.36 6.36 0 0 0-4.75 1.94 6.67 6.67 0 0 0-1.9 4.86 6.7 6.7 0 0 0 4.08 6.36c.81.34 1.69.5 2.57.48 1.4 0 2.75-.45 3.88-1.28v1.03h1.42V6.19h-1.42v7.6Zm0 10a6.14 6.14 0 0 1-3.54 1.2 5.31 5.31 0 0 1-5.12-3.4 5.37 5.37 0 0 1-.38-2.14 5.2 5.2 0 0 1 3.19-4.98 5.02 5.02 0 0 1 2.03-.36c1.36.02 2.7.45 3.82 1.22v8.46ZM24.4 8.85c-1.22-.27-1.36.37-.88 1.52 2.76 6.1.3 12.04-2.32 13.52-.05-.2-.07-.4-.07-.6-.31-2.89-1.41-5.4-2.15-5.4-.6 0-.23 2.47-.38 4.65-.98-.57-1.57-.98-2.61-.8-1.5.26-3.49 3.42-3.55 2.97-.59-3.65.83-9.28 2.8-9.88.3-.12.87.35 2.03.8.93.35.82-.58.4-.93a4.52 4.52 0 0 0-4.75-.34c-2.96 1.45-4.3 8.03-2.7 10.72a4.17 4.17 0 0 0 2.96 2.05c1.99.23 2.61-.19 4.19-2.15.22.18.48.3.76.37-1.3 4.05-6.2 7.48-7.24 6.9-5.12-3.48-3.7-14.62-.1-24.38a55.07 55.07 0 0 0 1.75-5.42C13.08-.17 9.75-.7 7.47 1.23c-1.66 1.4-3.25 4.65-4.55 8.45C-1.2 21.8.55 31.98 7.94 34.2c8.52 2.54 12.57-2.77 13.2-8.1.52.06 1.04.08 1.57.07 2.6-.05 6.38-1.41 7.49-7.17.84-4.36-1.95-9.4-5.8-10.15Z" />
</svg>